#define recycle-mask-small_width 32
#define recycle-mask-small_height 32
static char recycle-mask-small_bits[] = {
  0x00, 0x90, 0x22, 0x00, 0x00, 0xFC, 0xFF, 0x00, 0x00, 0xFF, 0xFF, 0x01, 
  0x00, 0xFF, 0xFF, 0x01, 0x00, 0xFF, 0xFF, 0x1B, 0x80, 0xFF, 0xFE, 0x1F, 
  0xC0, 0xFF, 0xFC, 0x0F, 0xC0, 0x7F, 0xFC, 0x07, 0xC0, 0x7F, 0xFC, 0x07, 
  0x00, 0x3F, 0xFC, 0x03, 0x40, 0x1C, 0x77, 0x19, 0xFF, 0x13, 0x00, 0x1E, 
  0xFC, 0x03, 0x80, 0x3F, 0xF8, 0x07, 0xE0, 0x3F, 0xF8, 0x0F, 0xC0, 0x7F, 
  0xFC, 0x0F, 0xC0, 0x7F, 0xFC, 0x1F, 0x80, 0x7F, 0xFC, 0x1B, 0x80, 0xFF, 
  0xFC, 0x03, 0x98, 0x7F, 0xF8, 0x01, 0x18, 0x3F, 0xF8, 0x41, 0x1C, 0x3F, 
  0xF0, 0xFF, 0xFC, 0x1F, 0xF0, 0x7F, 0xFE, 0x1F, 0xE0, 0xFF, 0xFE, 0x0F, 
  0xE0, 0xFF, 0xFF, 0x0F, 0xC0, 0x7F, 0xFE, 0x07, 0x80, 0xFF, 0xFE, 0x07, 
  0x00, 0xFF, 0xFC, 0x01, 0x00, 0x00, 0x1C, 0x00, 0x00, 0x00, 0x18, 0x00, 
  0x00, 0x00, 0x18, 0x00, 0x00, 0x00, 0x00, 0x00, };
