#define noname_width 51
#define noname_height 51
static char noname_bits[] = {
 0x00,0x00,0x00,0x00,0x00,0x00,0x00,0x00,0x00,0xfe,0xff,0x0f,0x00,0x00,0x00,
 0x80,0x01,0x60,0x30,0x00,0x00,0x00,0x40,0x00,0x10,0x40,0x00,0x00,0x00,0x20,
 0x00,0x08,0x80,0x00,0x00,0x00,0x20,0x00,0x04,0x80,0x00,0x00,0x00,0x10,0x00,
 0x0c,0x00,0x71,0x00,0x00,0x10,0x00,0x0a,0x00,0x6d,0x00,0x00,0x08,0x00,0x0a,
 0x00,0x36,0x00,0x00,0x08,0x00,0x11,0x00,0x10,0x00,0x00,0x04,0x00,0x11,0x00,
 0x08,0x00,0x00,0x04,0x80,0x20,0x00,0x08,0x00,0x00,0x02,0x80,0x20,0x00,0x04,
 0x00,0x00,0x0c,0x40,0x40,0x00,0x02,0x00,0x00,0x30,0x40,0x60,0x00,0x02,0x00,
 0x00,0xc0,0x20,0x1c,0x00,0x01,0x00,0x00,0x00,0x23,0xfc,0xff,0x38,0x00,0xfe,
 0x7f,0x1c,0x00,0x00,0x26,0x00,0x02,0xc0,0x10,0x00,0x80,0x41,0x00,0x0c,0x80,
 0x00,0x00,0x60,0x40,0x00,0x30,0x80,0x01,0x00,0x18,0x80,0x00,0x20,0x00,0x01,
 0x00,0x04,0x80,0x00,0x10,0x00,0x02,0x00,0x04,0x00,0x01,0x10,0x00,0x06,0x00,
 0x08,0x00,0x01,0x08,0x00,0x04,0x00,0x08,0x00,0x02,0x08,0x00,0x08,0x00,0x10,
 0x00,0x02,0x08,0x00,0x19,0x00,0x10,0x00,0x02,0x08,0x80,0x17,0x00,0x20,0x00,
 0x02,0x08,0x80,0x18,0x80,0x21,0x00,0x02,0x10,0x40,0x00,0x80,0x41,0x00,0x01,
 0x10,0x40,0x00,0x40,0x41,0x00,0x01,0x20,0x20,0x00,0x40,0x81,0x80,0x00,0x20,
 0x20,0x00,0x20,0x81,0xc0,0x00,0x40,0xf0,0xff,0x21,0xff,0x7f,0x00,0x40,0x10,
 0x00,0x11,0x00,0x40,0x00,0x80,0x08,0x00,0x11,0x00,0x20,0x00,0x80,0x08,0x00,
 0x09,0x00,0x20,0x00,0x00,0x05,0x00,0x09,0x00,0x10,0x00,0x00,0x05,0x00,0x05,
 0x00,0x10,0x00,0x00,0x02,0x00,0x05,0x00,0x08,0x00,0x00,0x02,0x00,0x09,0x00,
 0x08,0x00,0x00,0x04,0x00,0x09,0x00,0x04,0x00,0x00,0x08,0x00,0x11,0x00,0x02,
 0x00,0x00,0x30,0x00,0x11,0x80,0x01,0x00,0x00,0xc0,0xff,0x21,0x7f,0x00,0x00,
 0x00,0x00,0x00,0x20,0x01,0x00,0x00,0x00,0x00,0x00,0x40,0x01,0x00,0x00,0x00,
 0x00,0x00,0x40,0x01,0x00,0x00,0x00,0x00,0x00,0x80,0x01,0x00,0x00,0x00,0x00,
 0x00,0x80,0x01,0x00,0x00,0x00,0x00,0x00,0x00,0x00,0x00,0x00};
