/* XPM */
static char * no_slash_xpm[] = {
"18 13 2 1",
" 	s None c None",
"X	c black",
"                  ",
"                  ",
"           XXX    ",
"          XXX     ",
"         XXX      ",
"        XXX       ",
"       XXX        ",
"      XXX    XX   ",
"     XXX    XXXX  ",
"    XXX     XXXX  ",
"   XXX       XX   ",
"                  ",
"                  "};
